cyclingleg_states
version=1
nRows=9
nColumns=55
inDegrees=yes

# SIMM Motion File Header:
name cyclingleg_states
datacolumns 55
datarows 9
otherdata 1
range 0.77595547 0.77888173
endheader
time	/jointset/bb/crank_angle/value	/jointset/bb/crank_angle/speed	/jointset/spindle/pedal_angle_r/value	/jointset/spindle/pedal_angle_r/speed	/jointset/ground_pelvis/pelvis_tilt/value	/jointset/ground_pelvis/pelvis_tilt/speed	/jointset/ground_pelvis/pelvis_list/value	/jointset/ground_pelvis/pelvis_list/speed	/jointset/ground_pelvis/pelvis_rotation/value	/jointset/ground_pelvis/pelvis_rotation/speed	/jointset/ground_pelvis/pelvis_tx/value	/jointset/ground_pelvis/pelvis_tx/speed	/jointset/ground_pelvis/pelvis_ty/value	/jointset/ground_pelvis/pelvis_ty/speed	/jointset/ground_pelvis/pelvis_tz/value	/jointset/ground_pelvis/pelvis_tz/speed	/jointset/hip_r/hip_angle_r/value	/jointset/hip_r/hip_angle_r/speed	/jointset/hip_r/hip_adduction_r/value	/jointset/hip_r/hip_adduction_r/speed	/jointset/hip_r/hip_rotation_r/value	/jointset/hip_r/hip_rotation_r/speed	/jointset/knee_r/knee_angle_r/value	/jointset/knee_r/knee_angle_r/speed	/jointset/knee_r/tib_tx_r/value	/jointset/knee_r/tib_tx_r/speed	/jointset/knee_r/tib_ty_r/value	/jointset/knee_r/tib_ty_r/speed	/jointset/tib_pat_r/pat_angle_r/value	/jointset/tib_pat_r/pat_angle_r/speed	/jointset/tib_pat_r/pat_tx_r/value	/jointset/tib_pat_r/pat_tx_r/speed	/jointset/tib_pat_r/pat_ty_r/value	/jointset/tib_pat_r/pat_ty_r/speed	/jointset/ankle_r/ankle_angle_r/value	/jointset/ankle_r/ankle_angle_r/speed	/jointset/subtalar_r/subtalar_angle_r/value	/jointset/subtalar_r/subtalar_angle_r/speed	/jointset/mtp_r/mtp_angle_r/value	/jointset/mtp_r/mtp_angle_r/speed	/forceset/bifemlh_r/activation	/forceset/bifemlh_r/fiber_length	/forceset/bifemsh_r/activation	/forceset/bifemsh_r/fiber_length	/forceset/glut_max2_r/activation	/forceset/glut_max2_r/fiber_length	/forceset/vas_int_r/activation	/forceset/vas_int_r/fiber_length	/forceset/gastroc_r/activation	/forceset/gastroc_r/fiber_length	/forceset/soleus_r/activation	/forceset/soleus_r/fiber_length	/forceset/tib_ant_r/activation	/forceset/tib_ant_r/fiber_length
      0.77595547	   -992.38939668	  -1143.13930303	    980.19687793	   1464.81896644	      0.00000000	      0.00000000	     -0.00000000	     -0.00000000	      0.00000000	      0.00000000	     -0.10000000	     -0.00000000	     -0.05000000	     -0.00000000	     -0.08504037	      0.89631254	    -44.98636073	   -284.49559512	      6.91659333	     88.27052828	    -10.36637334	     82.70315645	     96.76746008	    494.39792223	     -0.00628327	      0.00455996	     -0.46402051	     -0.01724902	   -188.77727558	   -984.25085660	      0.05573659	      0.00000264	     -0.02550848	     -0.00000093	    -64.43070011	    115.84513985	     -0.00000000	     -0.00000000	     -0.00000000	     -0.00000000	     -0.07446215	      0.08389018	     -0.07446215	      0.18584813	     -0.07446215	      0.03931350	     -0.07446215	      0.08010907	     -0.07446215	      0.10123894	     -0.07446215	      0.05131468	     -0.07446215	      0.16073131
      0.77623852	   -992.71316332	  -1144.60135564	    980.61227776	   1470.40735560	      0.00000000	      0.00000000	     -0.00000000	     -0.00000000	      0.00000000	      0.00000000	     -0.10000000	     -0.00000000	     -0.05000000	     -0.00000000	     -0.08478641	      0.89821516	    -45.06665885	   -282.88862636	      6.94150374	     87.74509286	    -10.34284822	     83.52568317	     96.90721562	    493.11285345	     -0.00628198	      0.00453289	     -0.46402538	     -0.01721248	   -189.05550189	   -981.69253265	      0.05573659	      0.00000265	     -0.02550848	     -0.00000093	    -64.39738690	    119.55097080	     -0.00000000	     -0.00000000	     -0.00000000	     -0.00000000	     -0.07449859	      0.08379671	     -0.07449859	      0.18576399	     -0.07449859	      0.03919476	     -0.07449859	      0.08022886	     -0.07449859	      0.10122692	     -0.07449859	      0.05130366	     -0.07449859	      0.16072855
      0.77692107	   -993.49563779	  -1148.20906792	    981.62055908	   1484.09336499	      0.00000000	      0.00000000	     -0.00000000	     -0.00000000	      0.00000000	      0.00000000	     -0.10000000	     -0.00000000	     -0.05000000	     -0.00000000	     -0.08417179	      0.90271734	    -45.25840387	   -278.94235883	      7.00095215	     86.44021424	    -10.28515950	     85.51535840	     97.24271459	    489.94095018	     -0.00627891	      0.00446682	     -0.46403710	     -0.01712067	   -189.72341559	   -975.37788534	      0.05573659	      0.00000266	     -0.02550849	     -0.00000094	    -64.31270672	    128.61416913	     -0.00000000	     -0.00000000	     -0.00000000	     -0.00000000	     -0.07458647	      0.08357132	     -0.07458647	      0.18556141	     -0.07458647	      0.03890843	     -0.07458647	      0.08056170	     -0.07458647	      0.10120047	     -0.07458647	      0.05127722	     -0.07458647	      0.16072148
      0.77725099	   -993.87476108	  -1150.02548524	    982.11131216	   1490.83697142	      0.00000000	      0.00000000	     -0.00000000	     -0.00000000	      0.00000000	      0.00000000	     -0.10000000	     -0.00000000	     -0.05000000	     -0.00000000	     -0.08387361	      0.90483917	    -45.35011521	   -277.00327872	      7.02936462	     85.79322249	    -10.25678675	     86.47779422	     97.40410312	    488.38703157	     -0.00627744	      0.00443463	     -0.46404274	     -0.01707499	   -190.04470901	   -972.28433326	      0.05573660	      0.00000266	     -0.02550849	     -0.00000094	    -64.26954338	    133.03861695	     -0.00000000	     -0.00000000	     -0.00000000	     -0.00000000	     -0.07462895	      0.08346238	     -0.07462895	      0.18546361	     -0.07462895	      0.03877003	     -0.07462895	      0.08066327	     -0.07462895	      0.10118898	     -0.07462895	      0.05126450	     -0.07462895	      0.16071784
      0.77758092	   -994.25448678	  -1151.85574204	    982.60430091	   1497.64254315	      0.00000000	      0.00000000	     -0.00000000	     -0.00000000	      0.00000000	      0.00000000	     -0.10000000	     -0.00000000	     -0.05000000	     -0.00000000	     -0.08357473	      0.90693582	    -45.44118245	   -275.03681926	      7.05756136	     85.13184438	    -10.22809604	     87.44317579	     97.56497400	    486.80003057	     -0.00627598	      0.00440211	     -0.46404837	     -0.01702780	   -190.36497189	   -969.12492052	      0.05573660	      0.00000266	     -0.02550849	     -0.00000094	    -64.22491219	    137.51587171	     -0.00000000	     -0.00000000	     -0.00000000	     -0.00000000	     -0.07467143	      0.08335343	     -0.07467143	      0.18536594	     -0.07467143	      0.03863162	     -0.07467143	      0.08078836	     -0.07467143	      0.10117834	     -0.07467143	      0.05125182	     -0.07467143	      0.16071406
      0.77791085	   -994.63482143	  -1153.70393239	    983.09954717	   1504.51321838	      0.00000000	      0.00000000	     -0.00000000	     -0.00000000	      0.00000000	      0.00000000	     -0.10000000	     -0.00000000	     -0.05000000	     -0.00000000	     -0.08327516	      0.90900536	    -45.53159681	   -273.04326439	      7.08553778	     84.45633040	    -10.19908657	     88.41110927	     97.72531733	    485.18175455	     -0.00627454	      0.00436929	     -0.46405398	     -0.01697914	   -190.68418452	   -965.90324525	      0.05573660	      0.00000267	     -0.02550849	     -0.00000094	    -64.17879704	    142.04351059	     -0.00000000	     -0.00000000	     -0.00000000	     -0.00000000	     -0.07471390	      0.08324448	     -0.07471390	      0.18526839	     -0.07471390	      0.03849321	     -0.07471390	      0.08096531	     -0.07471390	      0.10116858	     -0.07471390	      0.05123917	     -0.07471390	      0.16071012
      0.77820675	   -994.97645579	  -1155.40898156	    983.54565727	   1510.75276170	      0.00000000	      0.00000000	     -0.00000000	     -0.00000000	      0.00000000	      0.00000000	     -0.10000000	     -0.00000000	     -0.05000000	     -0.00000000	     -0.08300591	      0.91082766	    -45.61212412	   -271.23742463	      7.11043782	     83.84172374	    -10.17279705	     89.27889640	     97.86866760	    483.72131232	     -0.00627325	      0.00433974	     -0.46405900	     -0.01693488	   -190.96956724	   -962.99578661	      0.05573660	      0.00000267	     -0.02550849	     -0.00000094	    -64.13616220	    146.12481689	     -0.00000000	     -0.00000000	     -0.00000000	     -0.00000000	     -0.07475200	      0.08314677	     -0.07475200	      0.18518101	     -0.07475200	      0.03836908	     -0.07475200	      0.08106245	     -0.07475200	      0.10116058	     -0.07475200	      0.05122786	     -0.07475200	      0.16070646
      0.77850265	   -995.31859748	  -1157.12630825	    983.99362196	   1517.04401381	      0.00000000	      0.00000000	     -0.00000000	     -0.00000000	      0.00000000	      0.00000000	     -0.10000000	     -0.00000000	     -0.05000000	     -0.00000000	     -0.08273613	      0.91262803	    -45.69211386	   -269.40854095	      7.13515435	     83.21523189	    -10.14625052	     90.14880200	     98.01158224	    482.23363270	     -0.00627197	      0.00430995	     -0.46406400	     -0.01688938	   -191.25408271	   -960.03410356	      0.05573660	      0.00000267	     -0.02550849	     -0.00000094	    -64.09231405	    150.24899232	     -0.00000000	     -0.00000000	     -0.00000000	     -0.00000000	     -0.07479010	      0.08304906	     -0.07479010	      0.18509373	     -0.07479010	      0.03824495	     -0.07479010	      0.08117989	     -0.07479010	      0.10115329	     -0.07479010	      0.05121658	     -0.07479010	      0.16070267
      0.77888173	   -995.75766193	  -1159.35321300	    984.57024220	   1525.18571201	      0.00000000	      0.00000000	     -0.00000000	     -0.00000000	      0.00000000	      0.00000000	     -0.10000000	     -0.00000000	     -0.05000000	     -0.00000000	     -0.08238974	      0.91489885	    -45.79379201	   -267.03285951	      7.16654494	     82.39600068	    -10.11186555	     91.26554955	     98.19402083	    480.29234167	     -0.00627034	      0.00427145	     -0.46407039	     -0.01682945	   -191.61728274	   -956.16936774	      0.05573660	      0.00000268	     -0.02550849	     -0.00000094	    -64.03434868	    155.58933374	     -0.00000000	     -0.00000000	     -0.00000000	     -0.00000000	     -0.07483891	      0.08292388	     -0.07483891	      0.18498209	     -0.07483891	      0.03808593	     -0.07483891	      0.08137619	     -0.07483891	      0.10114502	     -0.07483891	      0.05120216	     -0.07483891	      0.16069764
